PathFileType  4	(X/Y/Z) C:\Users\antoi\Documents\MyRepositories\mobilecap\ResultsAnalysis
DataRate	CameraRate	NumFrames	NumMarkers	Units	OrigDataRate	OrigDataStartFrame	OrigNumFrames
100.0	100.0	4	51	mm	100.0	38	150
Frame#	Time	r_knee			r_shank_antsup			r_ankle			r_calc			r_5meta			r_toe			L_knee			L_shank_antsup			L_ankle			L_calc			L_5meta			L_toe			r_sh2			r_sh3			r_sh4			L_sh2			L_sh3			r_thigh1			r_thigh2			r_thigh3			r_thigh4			r_thigh5			L_thigh1			L_thigh2			L_thigh3			L_thigh4			r.ASIS			r.PSIS			L.ASIS			L.PSIS			C7			R_Shoulder			L_Shoulder			R_Sternum			L_Sternum			R_humerus			R_elbow_med			R_elbow_lat			R_forearm			R_wrist_radius			R_wrist_ulna			L_humerus			L_elbow_med			L_elbow_lat			L_forearm			L_wrist_radius			L_wrist_ulna			R_HJC			L_HJC			R_HJC_reg			L_HJC_reg			
		X1	Y1	Z1	X2	Y2	Z2	X3	Y3	Z3	X4	Y4	Z4	X5	Y5	Z5	X6	Y6	Z6	X7	Y7	Z7	X8	Y8	Z8	X9	Y9	Z9	X10	Y10	Z10	X11	Y11	Z11	X12	Y12	Z12	X13	Y13	Z13	X14	Y14	Z14	X15	Y15	Z15	X16	Y16	Z16	X17	Y17	Z17	X18	Y18	Z18	X19	Y19	Z19	X20	Y20	Z20	X21	Y21	Z21	X22	Y22	Z22	X23	Y23	Z23	X24	Y24	Z24	X25	Y25	Z25	X26	Y26	Z26	X27	Y27	Z27	X28	Y28	Z28	X29	Y29	Z29	X30	Y30	Z30	X31	Y31	Z31	X32	Y32	Z32	X33	Y33	Z33	X34	Y34	Z34	X35	Y35	Z35	X36	Y36	Z36	X37	Y37	Z37	X38	Y38	Z38	X39	Y39	Z39	X40	Y40	Z40	X41	Y41	Z41	X42	Y42	Z42	X43	Y43	Z43	X44	Y44	Z44	X45	Y45	Z45	X46	Y46	Z46	X47	Y47	Z47	X48	Y48	Z48	X49	Y49	Z49	X50	Y50	Z50	X51	Y51	Z51	

38	0.37000000	222.95554	535.95478	-20.39381	241.71499	452.43379	-13.80167	148.99971	97.93258	-53.08371	87.20056	55.43852	-95.77797	296.71829	35.78623	-32.66752	325.54740	63.00190	-94.50876	443.28616	572.71403	-312.34303	422.69279	456.65973	-316.71020	213.68435	208.48937	-250.51815	137.82987	194.80762	-199.32013	317.78839	78.12597	-296.66119	357.16764	99.28344	-238.41999	227.42358	339.23645	-13.06911	168.45844	460.40162	8.62311	144.51127	347.54019	1.53918	347.33051	509.57977	-321.87100	287.31146	406.20256	-305.47684	310.37118	852.34399	24.31899	320.19630	743.17871	5.29617	261.66306	713.47550	30.35135	198.75614	840.71905	27.75489	208.83943	725.99659	17.07175	376.17014	890.64715	-329.74564	449.57085	773.17198	-333.41387	277.22242	828.16827	-330.78376	357.26158	713.31992	-339.41956	335.21870	1051.86336	-19.02900	143.95609	1097.75751	-103.36819	338.80720	1038.61603	-277.91588	143.75864	1088.32067	-207.70732	181.25481	1600.92448	-191.97842	227.29218	1572.69938	-13.12134	252.79682	1572.93001	-335.35363	331.39873	1529.81317	-142.08888	337.19227	1525.25886	-197.69065	180.61973	1313.27015	91.69934	142.48882	1219.25419	22.98449	149.05342	1228.78717	105.65671	224.65010	1088.46156	136.23432	275.76154	985.61133	139.30616	231.95239	980.11408	148.43914	226.66567	1320.96405	-433.98580	158.99124	1234.57030	-382.92277	194.76191	1236.46847	-445.74475	257.04123	1072.18634	-446.64793	292.86084	981.70056	-424.57242	260.36746	971.28519	-444.73214	246.35799	977.34426	-23.82372	252.47010	964.39672	-253.74843	257.80031	983.98462	-49.55214	257.47825	968.57222	-219.95934	
39	0.38000000	228.18199	535.05248	-20.77694	246.11762	451.31576	-14.72107	149.44179	98.15767	-53.98570	87.03246	55.64462	-96.09227	296.74008	35.78401	-32.58761	325.56992	62.62148	-94.58577	457.76570	573.11135	-310.70331	441.79501	455.92141	-315.56025	246.08862	196.72684	-251.65836	170.37926	178.75418	-200.77290	357.01861	72.97400	-297.81226	394.83537	95.89037	-239.27695	230.90744	338.28769	-14.09040	173.21170	459.91978	8.34152	148.21122	347.28455	1.25387	363.85747	505.26229	-320.98804	309.28772	398.67966	-305.22568	318.72195	850.67916	24.39242	327.28226	741.62251	5.04723	268.74952	712.24058	30.14497	206.97805	840.00603	27.96409	216.03560	725.22583	16.99952	387.83641	891.17770	-328.52548	462.16138	773.94638	-331.55837	289.31238	827.72526	-330.34205	370.39735	713.47669	-338.24863	344.94560	1050.37064	-18.25691	154.06365	1096.87066	-103.12233	349.09125	1037.74257	-277.09484	154.01865	1087.55436	-207.42675	193.07231	1599.80107	-193.56146	238.53153	1572.68345	-14.38113	265.10955	1570.59148	-336.65067	342.93421	1528.61216	-142.81134	348.78336	1523.68320	-198.37560	190.88926	1313.97535	91.79325	152.62095	1219.55805	23.65118	159.04886	1229.59780	106.21155	234.79927	1089.55587	137.38538	285.89948	986.68647	140.98852	242.10320	981.20450	150.15651	236.19970	1318.51831	-434.00104	167.92446	1233.39113	-382.23844	203.12874	1234.53877	-445.26863	261.41516	1068.97844	-447.35815	295.05189	977.41819	-426.05040	262.04610	967.96367	-446.24564	255.93198	976.06024	-23.47032	262.64357	963.58223	-253.40510	267.47597	982.93914	-48.98527	267.40311	967.72136	-219.36268	
40	0.39000000	233.56800	534.09899	-21.19708	250.54631	450.12466	-15.78256	149.92717	98.38274	-54.87068	86.83974	55.87909	-96.38399	296.75323	35.79787	-32.57418	325.61516	62.30554	-94.67210	471.73864	573.15706	-309.10407	460.57238	454.96704	-314.65750	279.32883	185.08892	-253.18263	203.93581	162.93457	-202.52969	396.53279	68.33260	-299.30498	432.71758	92.83079	-240.46419	234.45603	337.36789	-15.22984	178.09750	459.41374	8.04158	152.00597	347.02324	0.96957	380.31884	500.48134	-320.16408	331.46569	390.98208	-305.12239	327.27543	848.93283	24.32859	334.62755	739.92941	4.70147	276.12423	710.87399	29.71753	215.39588	839.19885	28.17599	223.43286	724.37380	16.88712	399.21143	891.42678	-327.28293	474.29442	774.30394	-329.71262	301.09929	827.00342	-329.89682	383.00738	713.34271	-337.03062	354.80919	1048.77270	-17.56998	164.23881	1095.82199	-102.85025	359.35145	1036.71430	-276.35816	164.26486	1086.65661	-207.10306	205.00476	1598.52625	-195.22487	249.93303	1572.47395	-15.71637	277.53241	1568.04507	-338.05413	354.55220	1527.22740	-143.63687	360.44574	1521.93947	-199.15437	201.11787	1314.55327	91.85788	162.71821	1219.67343	24.31769	168.95655	1230.29255	106.75354	244.86284	1090.51093	138.50012	295.92756	987.62651	142.60499	252.15998	982.17692	151.84851	245.75503	1315.93528	-434.14958	176.96594	1232.05199	-381.67628	211.50874	1232.47803	-444.93436	265.97342	1065.81299	-448.20823	297.56862	973.33240	-427.62893	263.95972	964.83521	-447.87525	265.64135	974.65570	-23.13608	272.80531	962.61848	-253.08083	277.30689	981.70861	-48.45511	277.34998	966.73232	-218.80755	
41	0.40000000	239.10816	533.11278	-21.61581	255.02949	448.88309	-16.88172	150.42992	98.60535	-55.68313	86.64308	56.13963	-96.62953	296.75788	35.81416	-32.62325	325.68700	62.03088	-94.77759	485.15123	572.85956	-307.56277	479.04522	453.81940	-314.03379	313.28726	173.79213	-255.02567	238.44971	147.58567	-204.57260	436.23358	64.25002	-301.11247	470.77506	90.17363	-241.96287	238.04020	336.46780	-16.39318	183.09320	458.90620	7.75130	155.84388	346.79466	0.70573	396.74947	495.24301	-319.41295	353.80391	383.20411	-305.15916	336.03447	847.11484	24.16312	342.24851	738.12300	4.25913	283.76570	709.40486	29.08741	224.01318	838.32146	28.40135	231.03021	723.45822	16.75562	410.38031	891.39731	-325.97123	485.99229	774.26215	-327.89003	312.63235	826.06338	-329.48013	395.11164	712.91893	-335.81387	364.83907	1047.07778	-16.95601	174.50460	1094.63681	-102.53509	369.64589	1035.59544	-275.71325	174.52035	1085.64288	-206.73180	217.05936	1597.12098	-196.98253	261.51059	1572.08690	-17.13378	290.06864	1565.29304	-339.57482	366.23432	1525.66991	-144.56418	372.17853	1520.04056	-200.02566	211.30550	1315.02857	91.88910	172.77309	1219.64365	24.95899	178.77286	1230.89926	107.27432	254.81114	1091.31842	139.58570	305.83749	988.44840	144.14535	262.12239	983.04320	153.49309	255.32589	1313.21820	-434.44488	186.10758	1230.54849	-381.25288	219.90424	1230.28445	-444.74651	270.72257	1062.67542	-449.19628	300.38950	969.39038	-429.32376	266.16443	961.83452	-449.56374	275.52382	973.13568	-22.83072	283.00470	961.55414	-252.78805	287.32445	980.34226	-47.94857	287.35036	965.63922	-218.29062	
